<?xml version="1.0" encoding="UTF-8" standalone="no"?>
<svg
   xmlns:dc="http://purl.org/dc/elements/1.1/"
   xmlns:cc="http://creativecommons.org/ns#"
   xmlns:rdf="http://www.w3.org/1999/02/22-rdf-syntax-ns#"
   xmlns:svg="http://www.w3.org/2000/svg"
   xmlns="http://www.w3.org/2000/svg"
   xmlns:sodipodi="http://sodipodi.sourceforge.net/DTD/sodipodi-0.dtd"
   xmlns:inkscape="http://www.inkscape.org/namespaces/inkscape"
   width="9.0993347in"
   height="9.775774in"
   viewBox="0 0 231.1231 248.30467"
   version="1.1"
   id="svg8"
   inkscape:version="1.0.2 (e86c8708, 2021-01-15)"
   sodipodi:docname="cactus_club.svg">
  <defs
     id="defs2">
    <rect
       x="83.376678"
       y="67.957703"
       width="150.19225"
       height="28.553658"
       id="rect993" />
    <rect
       x="144.9351"
       y="-54.151581"
       width="44.304672"
       height="113.36614"
       id="rect1265" />
  </defs>
  <sodipodi:namedview
     id="base"
     pagecolor="#ffffff"
     bordercolor="#666666"
     borderopacity="1.0"
     inkscape:pageopacity="0.0"
     inkscape:pageshadow="2"
     inkscape:zoom="0.32986149"
     inkscape:cx="367.2045"
     inkscape:cy="351.30643"
     inkscape:document-units="mm"
     inkscape:current-layer="layer2"
     inkscape:document-rotation="0"
     showgrid="false"
     units="in"
     inkscape:window-width="1252"
     inkscape:window-height="712"
     inkscape:window-x="0"
     inkscape:window-y="25"
     inkscape:window-maximized="0"
     inkscape:snap-global="false"
     showguides="false" />
  <metadata
     id="metadata5">
    <rdf:RDF>
      <cc:Work
         rdf:about="">
        <dc:format>image/svg+xml</dc:format>
        <dc:type
           rdf:resource="http://purl.org/dc/dcmitype/StillImage" />
        <dc:title />
      </cc:Work>
    </rdf:RDF>
  </metadata>
  <g
     inkscape:groupmode="layer"
     id="layer3"
     inkscape:label="Layer 3"
     transform="translate(-36.061665,-33.267895)">
    <g
       id="g222"
       transform="translate(-0.71461843)">
      <path
         d="m 189.55881,116.256 c -5.82057,0 -10.53765,4.71708 -10.53765,10.53765 v 21.0753 c 0,3.49218 -2.83041,6.32259 -6.32259,6.32259 -3.49217,0 -6.32259,-2.83041 -6.32259,-6.32259 v -37.93554 c 0,-7.9888 -5.98159,-14.314762 -13.95901,-14.73121 -8.50767,-0.446375 -15.5464,6.3209 -15.5464,14.73121 v 50.58072 c 0,3.49218 -2.83042,6.32259 -6.32259,6.32259 -3.49218,0 -6.32259,-2.83041 -6.32259,-6.32259 v -21.0753 c 0,-5.82058 -4.71708,-10.53765 -10.53765,-10.53765 -5.82058,0 -10.53765,4.71707 -10.53765,10.53765 v 35.82801 c 0,9.31106 7.54749,16.86024 16.86024,16.86024 h 12.64518 c 2.32797,0 4.21506,1.88708 4.21506,4.21506 v 21.07529 h 29.50541 v -33.72047 c 0,-2.32798 1.88709,-4.21506 4.21506,-4.21506 h 12.64518 c 9.31276,0 16.86024,-7.54917 16.86024,-16.86024 v -35.82801 c 0,-5.82057 -4.71707,-10.53765 -10.53765,-10.53765 z"
         style="fill:none;stroke:#638849;stroke-width:4.21506;stroke-linecap:round;stroke-linejoin:round;stroke-miterlimit:10;stroke-dasharray:none;stroke-opacity:1"
         id="path1251" />
      <path
         d="m 115.79527,217.41743 h 71.65601"
         style="fill:none;stroke:#638849;stroke-width:4.21506;stroke-linecap:round;stroke-linejoin:round;stroke-miterlimit:10;stroke-dasharray:none;stroke-opacity:1"
         id="path1253" />
    </g>
    <text
       xml:space="preserve"
       id="text1263"
       style="font-style:normal;font-weight:normal;font-size:10.58329999999999949px;line-height:1.25;font-family:sans-serif;white-space:pre;shape-inside:url(#rect1265);fill:#000000;fill-opacity:1;stroke:none;" />
  </g>
  <g
     inkscape:label="Layer 1"
     inkscape:groupmode="layer"
     id="layer1"
     transform="translate(-36.061665,-33.267895)">
    <path
       style="mix-blend-mode:normal;fill:none;stroke:#fda08d;stroke-width:6.1214;stroke-miterlimit:4;stroke-dasharray:none;stroke-opacity:1;paint-order:stroke fill markers"
       id="path833"
       d="M 97.335052,254.1954 A 112.5,112.5 0 0 1 39.991759,169.61281 112.5,112.5 0 0 1 74.753837,73.51876"
       sodipodi:type="arc"
       sodipodi:arc-type="arc"
       sodipodi:open="true"
       sodipodi:start="2.0743738"
       sodipodi:end="3.9601382"
       sodipodi:ry="112.5"
       sodipodi:rx="112.5"
       sodipodi:cy="155.66095"
       sodipodi:cx="151.62328" />
    <path
       style="mix-blend-mode:normal;fill:none;stroke:#fda08d;stroke-width:6.1214;stroke-miterlimit:4;stroke-dasharray:none;stroke-opacity:1;paint-order:stroke fill markers"
       id="path102"
       d="m 228.56037,74.181229 a 112.5,112.5 0 0 1 34.83722,94.836321 112.5,112.5 0 0 1 -55.31137,84.54711"
       sodipodi:type="arc"
       sodipodi:arc-type="arc"
       sodipodi:open="true"
       sodipodi:start="5.4654637"
       sodipodi:end="1.0450105"
       sodipodi:ry="112.5"
       sodipodi:rx="112.5"
       sodipodi:cy="156.26006"
       sodipodi:cx="151.62328" />
  </g>
  <g
     inkscape:groupmode="layer"
     id="layer2"
     inkscape:label="Layer 2"
     transform="translate(-36.061665,-33.267895)">
    <text
       xml:space="preserve"
       id="text991"
       style="font-style:normal;font-weight:normal;font-size:10.58329999999999949px;line-height:1.25;font-family:sans-serif;white-space:pre;shape-inside:url(#rect993);fill:#000000;fill-opacity:1;stroke:none;" />
    <g
       id="g1041"
       transform="translate(0.76148766,-2.2842536)">
      <g
         aria-label="CACTUS"
         transform="rotate(1.8745218,1253.5211,11598.668)"
         id="text90"
         style="font-style:normal;font-variant:normal;font-weight:normal;font-stretch:normal;font-size:42.3333px;line-height:1.25;font-family:Mexcellent;-inkscape-font-specification:Mexcellent;fill:#000000;fill-opacity:1;stroke:none;stroke-width:0.264583">
        <path
           d="m -273.84596,115.12373 c 2.73493,4.33109 0.94113,9.41911 -2.78147,11.76979 -3.72259,2.35069 -9.12342,1.80583 -11.85836,-2.52527 l -8.54383,-13.53021 c -2.75754,-4.36689 -0.92794,-9.47751 2.79466,-11.828194 3.72259,-2.350685 9.08763,-1.783218 11.84516,2.583674 l 0.51987,0.82327 0.82326,-0.51987 -0.51986,-0.82326 c -2.98356,-4.724837 -8.67823,-5.735026 -13.1883,-2.88708 -4.51007,2.84795 -6.04583,8.42389 -3.06227,13.14872 l 8.54384,13.53021 c 2.96096,4.68904 8.67823,5.73502 13.1883,2.88708 4.51007,-2.84795 6.02323,-8.45969 3.06227,-13.14873 l -0.45206,-0.71588 -0.82326,0.51986 z m -1.64653,1.03972 c 2.05685,3.25727 1.16361,7.07568 -2.12946,9.15513 -3.29306,2.07945 -7.12466,1.24461 -9.18151,-2.01266 l -8.54384,-13.53021 c -2.07945,-3.29306 -1.16361,-7.07567 2.12946,-9.15512 3.29307,-2.079457 7.10206,-1.28041 9.18151,2.01266 l 0.51986,0.82326 0.82327,-0.51986 -0.51986,-0.82327 c -2.4185,-3.829976 -7.19578,-4.418116 -10.52464,-2.316061 -3.32886,2.102051 -4.85136,6.668281 -2.43286,10.498261 l 8.54383,13.5302 c 2.3959,3.79419 7.17318,4.38233 10.50204,2.28027 3.32886,-2.10205 4.85135,-6.66828 2.45546,-10.46246 l -0.45205,-0.71588 -0.82327,0.51986 z m -1.61074,1.01713 c 1.55959,2.4698 0.94715,4.90928 -1.55844,6.49147 -2.5056,1.58219 -5.00725,1.10915 -6.56684,-1.36065 l -8.54384,-13.53021 c -1.58219,-2.50559 -0.93396,-4.96767 1.57163,-6.54987 2.5056,-1.58219 4.97146,-1.08654 6.55365,1.41905 l 0.51986,0.82327 0.82327,-0.51987 -0.51986,-0.82326 c -1.87603,-2.97092 -5.297,-3.314056 -7.87418,-1.68666 -2.57718,1.6274 -3.73787,4.86368 -1.86184,7.8346 l 8.54383,13.53021 c 1.85343,2.93512 5.27439,3.27826 7.85158,1.65086 2.57718,-1.6274 3.73787,-4.86368 1.88444,-7.79881 l -0.45205,-0.71588 -0.82327,0.51986 z"
           style="font-style:normal;font-variant:normal;font-weight:normal;font-stretch:normal;font-size:42.3333px;font-family:Mexcellent;-inkscape-font-specification:Mexcellent;stroke-width:0.264583"
           id="path137" />
        <path
           d="m -268.95024,103.60275 -2.57344,-7.172286 c -1.22953,-3.42676 0.62431,-7.285204 4.01122,-8.500438 3.50646,-1.258124 7.44459,0.567121 8.73131,4.153266 l 2.50195,6.97306 z m 10.97422,-12.033219 c -1.34391,-3.745529 -5.78971,-6.108233 -9.89386,-4.635656 -3.86507,1.386796 -5.99994,5.840812 -4.49877,10.024648 l 8.34936,23.270097 0.91646,-0.32883 -5.53288,-15.42042 12.67104,-4.546405 5.53289,15.420425 0.87661,-0.31453 z m -9.83881,9.556949 -1.91578,-5.339374 c -0.94359,-2.62984 0.11213,-5.077524 2.86151,-6.064007 2.70953,-0.972187 5.18277,0.02939 6.18355,2.818618 l 1.91578,5.339372 z m 8.07738,-8.700063 c -1.12946,-3.147839 -4.27279,-4.763527 -7.46048,-3.619778 -3.06814,1.100859 -4.46726,4.34639 -3.33781,7.494228 l 2.17313,6.056603 10.79828,-3.874453 z m 3.62294,-1.43485 c -1.77281,-4.940911 -7.34649,-7.438642 -12.32724,-5.651534 -4.94091,1.772811 -7.59287,7.042015 -5.76287,12.14231 l 8.39226,23.389637 0.87661,-0.31453 -8.42085,-23.46933 c -1.52976,-4.263528 1.17633,-9.507183 5.24063,-10.965463 4.26353,-1.529765 9.55524,0.93421 11.05641,5.118046 l 8.42085,23.469327 0.91646,-0.32883 z m -0.46334,10.240823 -10.79828,3.87446 5.18976,14.46411 0.87662,-0.31453 -4.87523,-13.5875 9.04505,-3.24539 4.87523,13.5875 0.87661,-0.31453 z"
           style="font-style:normal;font-variant:normal;font-weight:normal;font-stretch:normal;font-size:42.3333px;font-family:Mexcellent;-inkscape-font-specification:Mexcellent;stroke-width:0.264583"
           id="path139" />
        <path
           d="m -227.9835,102.65057 c 0.65222,5.08064 -3.12083,8.93677 -7.48766,9.49735 -4.36682,0.56059 -9.03351,-2.21211 -9.68573,-7.29274 l -2.03751,-15.871745 c -0.65761,-5.122626 3.15742,-8.98415 7.52425,-9.544734 4.36683,-0.560584 8.99153,2.217502 9.64914,7.340128 l 0.12398,0.965741 0.96574,-0.123976 -0.12398,-0.96574 c -0.71151,-5.542513 -5.44827,-8.861063 -10.73885,-8.181894 -5.29058,0.67917 -9.03554,5.086547 -8.32403,10.62906 l 2.0375,15.87174 c 0.70613,5.50053 5.44828,8.86106 10.73886,8.18189 5.29058,-0.67916 9.03015,-5.12853 8.32403,-10.62905 l -0.1078,-0.83978 -0.96575,0.12398 z m -1.93148,0.24795 c 0.49051,3.82098 -1.93038,6.906 -5.79335,7.4019 -3.86296,0.4959 -6.98458,-1.87761 -7.47509,-5.69858 l -2.03751,-15.871746 c -0.4959,-3.862964 1.93038,-6.905998 5.79334,-7.4019 3.86297,-0.495901 6.9792,1.835622 7.4751,5.698586 l 0.12397,0.965741 0.96575,-0.123976 -0.12398,-0.965741 c -0.57676,-4.492794 -4.65986,-7.041643 -8.56481,-6.540351 -3.90496,0.501292 -7.21187,3.998821 -6.63511,8.491616 l 2.03751,15.871741 c 0.57136,4.45081 4.65447,6.99965 8.55942,6.49836 3.90495,-0.50129 7.21186,-3.99882 6.6405,-8.44962 l -0.10781,-0.83978 -0.96574,0.12398 z m -1.8895,0.24256 c 0.37193,2.89722 -1.21259,4.85054 -4.1518,5.22786 -2.93921,0.37732 -5.00771,-1.10705 -5.37964,-4.00428 l -2.03751,-15.871737 c -0.37731,-2.939211 1.24919,-4.89792 4.1884,-5.275236 2.93921,-0.377316 4.96573,1.112442 5.34305,4.051653 l 0.12397,0.965741 0.96574,-0.123975 -0.12397,-0.965741 c -0.44739,-3.485065 -3.40418,-5.239527 -6.42737,-4.85143 -3.02319,0.388097 -5.44096,2.832508 -4.99357,6.317573 l 2.03751,15.871742 c 0.442,3.44308 3.39879,5.19754 6.42198,4.80944 3.02319,-0.3881 5.44095,-2.83251 4.99896,-6.27558 l -0.10781,-0.83978 -0.96574,0.12398 z"
           style="font-style:normal;font-variant:normal;font-weight:normal;font-stretch:normal;font-size:42.3333px;font-family:Mexcellent;-inkscape-font-specification:Mexcellent;stroke-width:0.264583"
           id="path141" />
        <path
           d="m -212.22802,81.302453 9.1592,0.705479 0.0715,-0.928582 -19.24697,-1.482482 -0.0715,0.928582 9.11699,0.702229 -2.37002,30.769841 0.97079,0.0748 z m 1.79203,2.091129 7.21762,0.555931 0.0748,-0.97079 -8.23062,-0.633956 -2.29525,29.799043 1.013,0.078 z m -3.76617,-1.266636 -8.18841,-0.630705 -0.0748,0.97079 7.21762,0.555931 -2.22047,28.828258 0.97079,0.0748 z m 11.35441,-2.989177 -19.24698,-1.482482 -0.0748,0.970791 19.24698,1.482481 z"
           style="font-style:normal;font-variant:normal;font-weight:normal;font-stretch:normal;font-size:42.3333px;font-family:Mexcellent;-inkscape-font-specification:Mexcellent;stroke-width:0.264583"
           id="path143" />
        <path
           d="m -183.55838,109.76724 c -1.44101,4.91546 -6.48482,6.92191 -10.66905,5.69527 -4.22486,-1.23855 -7.38703,-5.65064 -5.94603,-10.5661 l 7.00256,-23.886711 -0.89372,-0.262001 -7.00256,23.886712 c -1.56009,5.3217 1.43535,10.30252 6.55393,11.80307 5.11858,1.50054 10.32912,-1.07463 11.88921,-6.39633 l 7.00256,-23.886711 -0.93434,-0.27391 z m -1.86869,-0.54782 c -1.08373,3.69675 -4.53899,5.55129 -8.27636,4.45565 -3.73738,-1.09564 -5.64445,-4.52218 -4.56072,-8.21893 l 7.00257,-23.886712 -0.97497,-0.285819 -7.00256,23.886711 c -1.26237,4.3061 1.49568,8.29092 5.27368,9.39847 3.778,1.10755 8.21034,-0.76935 9.4727,-5.07546 l 7.00257,-23.886711 -0.93435,-0.27391 z m -1.82807,-0.53591 c -0.82172,2.80303 -3.05682,3.95651 -5.90047,3.12287 -2.84366,-0.83364 -4.14282,-3.02321 -3.3211,-5.82624 l 7.00257,-23.886711 -0.89372,-0.262001 -7.00257,23.886712 c -0.97654,3.33114 1.02791,6.1245 3.95282,6.98196 2.88428,0.84555 6.07965,-0.42345 7.05619,-3.75459 l 7.00257,-23.88671 -0.89372,-0.262001 z"
           style="font-style:normal;font-variant:normal;font-weight:normal;font-stretch:normal;font-size:42.3333px;font-family:Mexcellent;-inkscape-font-specification:Mexcellent;stroke-width:0.264583"
           id="path145" />
        <path
           d="m -156.14921,106.01836 0.81502,0.45069 c 1.93747,-3.76609 0.90423,-8.546057 -2.76335,-10.574176 -3.96396,-2.192007 -8.50509,-0.978324 -10.71759,3.022679 -1.72082,3.111887 -1.10245,6.017707 0.93767,8.451977 1.65702,2.0773 4.03976,3.10468 5.09312,5.57378 0.89647,2.14048 0.74864,4.33235 -0.54198,6.66627 -1.86423,3.37121 -6.27766,4.70389 -9.61183,2.86014 -3.40826,-1.88471 -4.6006,-6.02704 -2.75686,-9.36121 l -0.85207,-0.47118 c -1.88385,3.84411 -0.45575,8.69731 3.13775,10.68446 3.85282,2.13055 8.8991,0.61571 11.00917,-3.20006 1.47499,-2.66734 1.57706,-5.12638 0.50322,-7.55844 -1.14402,-2.56762 -3.35024,-3.73925 -5.14281,-5.74638 -1.93683,-2.18366 -2.45584,-4.74428 -0.96036,-7.448664 1.94618,-3.519401 5.81348,-4.476828 9.33288,-2.530654 3.26008,1.802773 4.40274,5.772508 2.51802,9.180768 z m 2.4821,1.37257 c 2.70416,-4.89012 0.94963,-10.552704 -3.57002,-13.052002 -4.77898,-2.6427 -10.38881,-1.245996 -13.13394,3.718211 -2.33541,4.223281 -1.53574,7.326101 0.97028,10.405011 1.13359,1.44923 3.87502,2.9652 4.94016,5.15057 0.80103,1.7007 0.60659,3.18955 -0.45868,5.11596 -1.41354,2.5562 -4.42571,3.45438 -7.056,1.99987 -2.74143,-1.51597 -3.44959,-4.08444 -2.01557,-6.67768 l -0.88911,-0.49167 c -1.51989,2.83601 -0.18023,6.62444 2.41302,8.05846 3.22303,1.78228 6.76084,0.5459 8.39972,-2.4178 1.16771,-2.11164 1.39833,-4.01585 0.52714,-5.8521 -1.1109,-2.45255 -3.5102,-3.53746 -5.10098,-5.38463 -2.31208,-2.72979 -2.90211,-5.8618 -0.91496,-9.455298 2.43784,-4.408513 7.49676,-5.771238 11.86823,-3.353885 4.14918,2.294438 5.44653,7.559083 3.1316,11.745313 z m -7.21415,13.57073 c 1.82326,-3.29712 1.9371,-6.03991 0.60307,-9.05122 -1.19369,-2.74021 -3.46615,-4.14197 -5.26265,-6.05453 -1.74289,-1.83454 -1.97645,-3.51168 -0.82923,-5.58628 1.43402,-2.59324 3.90792,-3.305332 6.79753,-1.707421 2.4821,1.372566 3.07913,3.879581 1.64511,6.472821 l 0.88911,0.49167 c 1.45365,-3.06614 0.88803,-6.329783 -2.00158,-7.927695 -3.29713,-1.823258 -6.60873,-0.55854 -8.14519,2.219934 -1.29062,2.333921 -0.94506,4.508371 0.90111,6.593521 1.77602,1.94961 3.98224,3.12124 5.13888,5.84096 1.14009,2.6622 1.04673,5.36793 -0.55118,8.25755 -2.3559,4.26032 -7.67721,6.01007 -12.12277,3.55175 -4.11214,-2.27396 -5.88238,-7.55823 -3.58009,-11.89657 l -0.81502,-0.45069 c -2.49844,4.95549 -0.57524,10.66298 3.94441,13.16228 4.85307,2.68367 10.78676,0.7888 13.38849,-3.91608 z"
           style="font-style:normal;font-variant:normal;font-weight:normal;font-stretch:normal;font-size:42.3333px;font-family:Mexcellent;-inkscape-font-specification:Mexcellent;stroke-width:0.264583"
           id="path147" />
      </g>
      <g
         aria-label="CLUB"
         transform="rotate(0.20006934,-10134.724,107071.85)"
         id="text128"
         style="font-style:normal;font-variant:normal;font-weight:normal;font-stretch:normal;font-size:42.3333px;line-height:1.25;font-family:Mexcellent;-inkscape-font-specification:Mexcellent;fill:#000000;fill-opacity:1;stroke:none;stroke-width:0.264583">
        <path
           d="m -252.78656,235.0386 c -2.11944,4.66329 -7.35716,5.95632 -11.36527,4.13466 -4.00812,-1.82166 -6.51685,-6.6354 -4.39742,-11.29869 l 6.62104,-14.56796 c 2.13695,-4.70183 7.41321,-5.97734 11.42133,-4.15568 4.00811,1.82166 6.47831,6.61789 4.34136,11.31971 l -0.40287,0.88641 0.88641,0.40287 0.40287,-0.88641 c 2.31211,-5.08722 0.0311,-10.40198 -4.82491,-12.60899 -4.85598,-2.20701 -10.35995,-0.43049 -12.67206,4.65674 l -6.62104,14.56796 c -2.29459,5.04868 -0.0311,10.40197 4.82491,12.60899 4.85598,2.20701 10.37747,0.39194 12.67206,-4.65674 l 0.35032,-0.77079 -0.88641,-0.40287 z m -1.77282,-0.80573 c -1.59396,3.5071 -5.27611,4.85612 -8.82175,3.24465 -3.54564,-1.61147 -4.95071,-5.2726 -3.35676,-8.7797 l 6.62104,-14.56796 c 1.61147,-3.54564 5.27611,-4.85612 8.82175,-3.24465 3.54564,1.61147 4.96823,5.23406 3.35676,8.7797 l -0.40287,0.88641 0.88641,0.40287 0.40287,-0.88641 c 1.87421,-4.12374 -0.25612,-8.43999 -3.8403,-10.06898 -3.58419,-1.62899 -8.23682,-0.39554 -10.11103,3.72819 l -6.62104,14.56796 c -1.85669,4.0852 0.27364,8.40145 3.85782,10.03044 3.58418,1.62898 8.23681,0.39554 10.09351,-3.68965 l 0.35032,-0.7708 -0.88641,-0.40286 z m -1.73428,-0.78822 c -1.20861,2.65923 -3.58396,3.48616 -6.28173,2.26005 -2.69777,-1.22612 -3.67536,-3.57695 -2.46676,-6.23618 l 6.62104,-14.56796 c 1.22612,-2.69777 3.64002,-3.50719 6.33779,-2.28107 2.69777,1.22612 3.63682,3.55943 2.4107,6.2572 l -0.40287,0.88641 0.88641,0.40287 0.40287,-0.88641 c 1.45382,-3.19879 -0.13691,-6.24679 -2.91176,-7.50794 -2.77485,-1.26115 -6.11718,-0.45519 -7.57101,2.74359 l -6.62104,14.56796 c -1.43631,3.16025 0.15443,6.20825 2.92928,7.4694 2.77484,1.26115 6.11718,0.45519 7.55349,-2.70505 l 0.35032,-0.7708 -0.88641,-0.40286 z"
           style="font-style:normal;font-variant:normal;font-weight:normal;font-stretch:normal;font-size:42.3333px;font-family:Mexcellent;-inkscape-font-specification:Mexcellent;stroke-width:0.264583"
           id="path186" />
        <path
           d="m -230.42484,243.71129 -9.07187,-1.44563 4.55674,-28.59519 -0.91973,-0.14656 -4.7033,29.51492 9.9916,1.59219 z m -0.29979,1.88126 -10.95313,-1.74541 4.85652,-30.47645 -0.96153,-0.15323 -5.00308,31.39618 11.91466,1.89864 z m -0.30644,1.92307 -12.8344,-2.0452 5.16297,-32.39952 -0.96153,-0.15322 -5.30953,33.31925 13.79592,2.19842 z"
           style="font-style:normal;font-variant:normal;font-weight:normal;font-stretch:normal;font-size:42.3333px;font-family:Mexcellent;-inkscape-font-specification:Mexcellent;stroke-width:0.264583"
           id="path188" />
        <path
           d="m -203.98448,238.10531 c 0.57158,5.09034 -3.30421,8.89088 -7.63731,9.37743 -4.37517,0.49127 -8.99731,-2.35508 -9.56888,-7.44542 l -2.77757,-24.73652 -0.92551,0.10392 2.77756,24.73653 c 0.61882,5.51103 5.30709,8.94634 10.60777,8.35114 5.30069,-0.59519 9.11034,-4.9847 8.49153,-10.49573 l -2.77757,-24.73653 -0.96759,0.10865 z m -1.93517,0.21729 c 0.42986,3.82827 -2.03964,6.87452 -5.90998,7.30911 -3.87035,0.43458 -6.95394,-1.98813 -7.3838,-5.8164 l -2.77757,-24.73653 -1.00965,0.11337 2.77757,24.73653 c 0.50071,4.4593 4.58496,7.06785 8.49737,6.62854 3.91241,-0.43931 7.27436,-3.88396 6.77365,-8.34326 l -2.77757,-24.73653 -0.96759,0.10864 z m -1.8931,0.21257 c 0.32594,2.90276 -1.28935,4.8307 -4.23418,5.16137 -2.94482,0.33066 -4.98953,-1.18632 -5.31547,-4.08908 l -2.77756,-24.73653 -0.92552,0.10393 2.77757,24.73653 c 0.38734,3.44965 3.31594,5.25077 6.34491,4.91066 2.98689,-0.33538 5.44311,-2.74115 5.05577,-6.1908 l -2.77757,-24.73653 -0.92552,0.10392 z"
           style="font-style:normal;font-variant:normal;font-weight:normal;font-stretch:normal;font-size:42.3333px;font-family:Mexcellent;-inkscape-font-specification:Mexcellent;stroke-width:0.264583"
           id="path190" />
        <path
           d="m -175.01703,226.28576 c -1.67356,-3.56358 -3.89414,-4.90596 -6.36557,-5.28869 1.28374,-2.14627 1.57416,-4.71466 -0.0994,-8.27824 -2.57333,-5.47949 -7.34896,-6.88471 -12.63685,-4.40136 l -8.58326,4.03096 14.34228,30.53952 8.58325,-4.03095 c 5.2879,-2.48336 7.33289,-7.09175 4.75956,-12.57124 z m -12.89571,15.36329 -13.53249,-28.81521 7.74026,-3.63505 c 4.82808,-2.26741 9.13055,-0.87383 11.37997,3.91594 1.47561,3.14208 1.56139,5.81441 -0.36042,8.49418 3.27146,0.19409 5.36777,1.96898 6.82539,5.07275 2.24942,4.78976 0.51562,9.06493 -4.31246,11.33234 z m 11.28635,-14.60748 c -1.67356,-3.56359 -4.72085,-5.17249 -7.85998,-4.58688 2.43731,-2.08002 3.06857,-5.41648 1.395,-8.98006 -1.9075,-4.06172 -5.83145,-5.44599 -10.19971,-3.39453 l -6.89726,3.23916 12.68671,27.01426 6.89726,-3.23916 c 4.36826,-2.05146 5.90348,-5.95276 3.97798,-10.05279 z m -10.11439,-3.01368 c 4.06172,-1.9075 7.57983,-0.19233 9.27139,3.40957 1.65557,3.52527 0.4542,6.94239 -3.53088,8.81391 l -5.97762,2.80727 -5.74051,-12.22348 z m -6.37352,1.96428 -5.75851,-12.2618 5.97763,-2.80727 c 3.98508,-1.87151 7.34356,-0.59583 8.99913,2.92943 1.69156,3.6019 0.82109,7.42486 -3.24063,9.33236 z m 14.84023,1.82319 c -1.70955,-3.64021 -4.85442,-4.36145 -8.03482,-2.86783 l -5.13463,2.41137 4.91273,10.46084 5.13462,-2.41137 c 3.52527,-1.65557 4.56173,-4.52756 3.1221,-7.59301 z m -14.39313,-3.06209 5.13463,-2.41137 c 3.1804,-1.49362 4.50308,-4.45325 2.79352,-8.09347 -1.43962,-3.06545 -4.21697,-4.09958 -7.74224,-2.44401 l -5.13462,2.41137 z m 6.62183,11.80958 -4.13893,-8.81316 4.25331,-1.99748 c 2.64395,-1.24168 5.39462,-0.66271 6.85224,2.44106 1.27767,2.72058 0.19886,5.00445 -2.71331,6.3721 z m -6.15441,-13.10479 -4.12093,-8.77484 4.25331,-1.99748 c 2.91218,-1.36765 5.24601,-0.77999 6.52367,1.94059 1.51161,3.21872 0.24121,5.59257 -2.40274,6.83425 z"
           style="font-style:normal;font-variant:normal;font-weight:normal;font-stretch:normal;font-size:42.3333px;font-family:Mexcellent;-inkscape-font-specification:Mexcellent;stroke-width:0.264583"
           id="path192" />
      </g>
    </g>
  </g>
</svg>
